<svg width="180" height="180" viewBox="0 0 180 180" fill="none" xmlns="http://www.w3.org/2000/svg">
  <rect width="180" height="180" rx="40" fill="#252d4a"/>
  <circle cx="90" cy="90" r="58" fill="#f0c419" stroke="#1a2038" stroke-width="5"/>
  <circle cx="90" cy="90" r="10" fill="#1a2038"/>
  <path fill="#1a2038" d="M90 44c-8.8 0-16 7.2-16 16 0 3.1.9 6 2.4 8.5l13.6-7.8C88.8 59.8 88 58.4 88 57c0-4.4 3.6-8 8-8s8 3.6 8 8c0 1.4-.8 2.8-2 3.7l13.6 7.8c1.5-2.5 2.4-5.4 2.4-8.5 0-8.8-7.2-16-16-16z"/>
  <path fill="#1a2038" d="M56.5 98.5c-4.4-7.6-1.8-17.4 5.8-21.8l7.8 13.6c-1.9 1.1-3.2 3.1-3.2 5.4 0 2.3 1.3 4.3 3.2 5.4l-7.8 13.6c-7.6-4.4-10.2-14.2-5.8-21.8z"/>
  <path fill="#1a2038" d="M123.5 98.5c4.4-7.6 1.8-17.4-5.8-21.8l-7.8 13.6c1.9 1.1 3.2 3.1 3.2 5.4 0 2.3-1.3 4.3-3.2 5.4l7.8 13.6c7.6-4.4 10.2-14.2 5.8-21.8z"/>
  <rect x="74" y="128" width="32" height="10" rx="3" fill="#5fd068"/>
</svg>
